 <svg
      xmlns="http://www.w3.org/2000/svg"
      width="20"
      height="20"
      fill="none"
      viewBox="0 0 24 24"
      class="nav-inactive-icon"
    >
      <g fill="#fff" opacity="0.8">
        <path d="M12 23.25C5.85 23.25.75 18.15.75 12S5.85.75 12 .75s11.25 4.5 11.25 10.05c0 3.6-3 6.6-6.6 6.6h-2.1c-.45 0-.9.45-.9.9 0 .3.15.45.3.6.45.45.6 1.05.6 1.65 0 1.5-1.2 2.7-2.55 2.7zM12 2.4c-5.25 0-9.6 4.35-9.6 9.6s4.35 9.6 9.6 9.6c.45 0 .9-.45.9-.9 0-.3-.15-.45-.3-.6-.45-.45-.6-1.05-.6-1.65 0-1.35 1.2-2.55 2.55-2.55h2.1c2.7 0 4.95-2.25 4.95-4.95 0-4.8-4.35-8.55-9.6-8.55z"></path>
        <path d="M5.85 12.707c.911 0 1.65-.74 1.65-1.65 0-.912-.739-1.65-1.65-1.65-.911 0-1.65.738-1.65 1.65 0 .91.739 1.65 1.65 1.65zM9.15 8.207c.911 0 1.65-.74 1.65-1.65 0-.912-.739-1.65-1.65-1.65-.911 0-1.65.738-1.65 1.65 0 .91.739 1.65 1.65 1.65zM14.85 8.207c.912 0 1.65-.74 1.65-1.65 0-.912-.739-1.65-1.65-1.65-.911 0-1.65.738-1.65 1.65 0 .91.739 1.65 1.65 1.65zM18.15 12.707c.911 0 1.65-.74 1.65-1.65 0-.912-.739-1.65-1.65-1.65-.911 0-1.65.738-1.65 1.65 0 .91.739 1.65 1.65 1.65z"></path>
      </g>
    </svg>