<svg
      width="20"
      height="20"
      viewBox="0 0 16 16"
      fill="none"
      xmlns="http://www.w3.org/2000/svg"
      class="nav-inactive-icon"
    >
      <g opacity="0.8">
        <path
          fill-rule="evenodd"
          clip-rule="evenodd"
          d="M15.27 9.42999L14.72 8.20999C14.6732 8.11339 14.6493 8.00733 14.65 7.89999C14.6469 7.79242 14.671 7.6858 14.72 7.59L15.25 6.38998C15.3622 6.15234 15.4204 5.89278 15.4204 5.62997C15.4204 5.36717 15.3622 5.10764 15.25 4.87C15.1491 4.63436 14.9991 4.42298 14.81 4.25C14.6215 4.08035 14.4003 3.95103 14.16 3.87L12.93 3.40997C12.8286 3.36905 12.7367 3.3078 12.66 3.22998C12.5864 3.15559 12.5287 3.06719 12.49 2.97L12.02 1.72998C11.9258 1.48905 11.7844 1.2694 11.6041 1.08392C11.4238 0.89845 11.2082 0.750916 10.97 0.649994C10.7289 0.550941 10.4707 0.499991 10.21 0.5C9.95135 0.507616 9.69664 0.565333 9.45999 0.669983L8.25998 1.22C8.06107 1.30009 7.83889 1.30009 7.63998 1.22L6.43997 0.669983C6.20135 0.567927 5.94453 0.51532 5.685 0.51532C5.42546 0.51532 5.16862 0.567927 4.92999 0.669983C4.68836 0.770505 4.47036 0.920371 4.28998 1.10999C4.10072 1.29054 3.95683 1.51325 3.87 1.75998L3.40997 3C3.37131 3.09719 3.31352 3.18559 3.23999 3.25998C3.16323 3.33779 3.07135 3.39908 2.97 3.44L1.72998 3.89999C1.48802 3.99171 1.26698 4.13114 1.07999 4.31C0.892351 4.48997 0.745698 4.70824 0.649994 4.94998C0.550941 5.19112 0.499991 5.4493 0.5 5.70999C0.50632 5.97202 0.564064 6.23025 0.669983 6.47L1.22 7.66998C1.30009 7.86889 1.30009 8.09107 1.22 8.28998L0.669983 9.48999C0.56279 9.7254 0.508186 9.98133 0.509979 10.24C0.508008 10.5019 0.562588 10.7611 0.669983 11C0.770447 11.2327 0.918423 11.4418 1.1044 11.614C1.29038 11.7862 1.51027 11.9177 1.75 12L2.98999 12.47C3.09157 12.5058 3.18383 12.5639 3.25998 12.64C3.33613 12.7162 3.39423 12.8084 3.42999 12.91L3.88998 14.14C4.02855 14.5003 4.2725 14.8104 4.59 15.03C4.85811 15.2223 5.1723 15.3402 5.50073 15.3719C5.82916 15.4035 6.16012 15.3476 6.45999 15.21L7.65997 14.66C7.7562 14.6121 7.86255 14.5881 7.97 14.59C8.07823 14.5916 8.18451 14.619 8.28 14.67L9.47998 15.2C9.71768 15.3056 9.97489 15.3601 10.235 15.3601C10.4951 15.3601 10.7523 15.3056 10.99 15.2C11.2316 15.0995 11.4496 14.9496 11.63 14.76C11.8109 14.5746 11.9506 14.3531 12.04 14.11L12.51 12.88C12.5457 12.7784 12.6038 12.6861 12.68 12.61C12.7561 12.5338 12.8484 12.4758 12.95 12.44L14.18 11.97C14.4195 11.8826 14.6402 11.7502 14.83 11.58C15.0189 11.4107 15.169 11.2027 15.27 10.97C15.3774 10.7311 15.432 10.4719 15.43 10.21C15.4377 9.94112 15.3829 9.67413 15.27 9.42999V9.42999ZM13.68 8.69L14.17 9.84998C14.2077 9.9426 14.2313 10.0404 14.24 10.14C14.2403 10.243 14.2199 10.345 14.18 10.44C14.1387 10.5328 14.0811 10.6175 14.01 10.69C13.9334 10.7582 13.8454 10.8124 13.75 10.85L12.58 11.3C12.3218 11.3861 12.0885 11.5337 11.9 11.73C11.7069 11.9211 11.5599 12.1536 11.47 12.41L11 13.64C10.9258 13.8344 10.7787 13.9922 10.59 14.08C10.3962 14.1503 10.1838 14.1503 9.98999 14.08L8.78998 13.53C8.54169 13.4179 8.27242 13.3599 8 13.3599C7.72758 13.3599 7.45828 13.4179 7.20999 13.53L6.00998 14.08C5.91158 14.1201 5.80625 14.1405 5.69998 14.14C5.60127 14.1388 5.50337 14.1219 5.40997 14.09C5.22173 14.0034 5.07216 13.8502 4.98999 13.66L4.53 12.42C4.43891 12.1642 4.29202 11.9319 4.10004 11.7399C3.90805 11.5479 3.67576 11.4011 3.41998 11.31L2.17999 10.84C2.08457 10.8024 1.99654 10.7482 1.91998 10.68C1.84883 10.6075 1.79127 10.5228 1.75 10.43C1.71014 10.335 1.6897 10.233 1.68997 10.13C1.69867 10.0304 1.72228 9.93262 1.75998 9.84L2.31 8.63998C2.42209 8.3917 2.48004 8.12239 2.48004 7.84998C2.48004 7.57756 2.42209 7.30828 2.31 7.06L1.75998 5.85999C1.68969 5.66616 1.68969 5.4538 1.75998 5.25998C1.80792 5.16007 1.87213 5.06884 1.94998 4.98999C2.03492 4.91772 2.13356 4.8633 2.23999 4.82999L3.47998 4.37C3.73634 4.28012 3.96887 4.13308 4.15997 3.94C4.33988 3.7557 4.4825 3.53837 4.57999 3.29999L5.03998 2.06C5.11876 1.86752 5.26942 1.71326 5.45999 1.62997C5.55563 1.61002 5.65436 1.61002 5.75 1.62997C5.85627 1.62945 5.9616 1.64986 6.06 1.69L7.25998 2.23999C7.50827 2.35208 7.77757 2.41003 8.04999 2.41003C8.3224 2.41003 8.59171 2.35208 8.84 2.23999L10.04 1.69C10.1324 1.64706 10.2331 1.62479 10.335 1.62479C10.4369 1.62479 10.5376 1.64706 10.63 1.69C10.7241 1.72886 10.8092 1.78672 10.88 1.85999C10.9538 1.93222 11.0088 2.02152 11.04 2.12L11.51 3.35999C11.6023 3.61517 11.749 3.8472 11.94 4.03998C12.1311 4.23305 12.3636 4.38012 12.62 4.47L13.86 4.92999C14.0525 5.00878 14.2067 5.1594 14.29 5.34998C14.3603 5.5438 14.3603 5.75616 14.29 5.94998L13.74 7.14999C13.6221 7.3936 13.5573 7.65947 13.55 7.92999C13.5376 8.18976 13.582 8.44912 13.68 8.69V8.69Z"
          fill="white"
        ></path>
        <path
          fill-rule="evenodd"
          clip-rule="evenodd"
          d="M9.86001 8.66999C9.71535 8.66942 9.57198 8.69739 9.43814 8.7523C9.30429 8.80721 9.1826 8.88799 9.08002 8.99C8.9268 9.14408 8.82264 9.34008 8.7807 9.55329C8.73876 9.7665 8.76089 9.98736 8.84433 10.188C8.92777 10.3886 9.06878 10.5601 9.24954 10.6807C9.4303 10.8013 9.64272 10.8656 9.86001 10.8656C10.0773 10.8656 10.2897 10.8013 10.4705 10.6807C10.6512 10.5601 10.7923 10.3886 10.8757 10.188C10.9591 9.98736 10.9813 9.7665 10.9393 9.55329C10.8974 9.34008 10.7932 9.14408 10.64 8.99C10.5374 8.88799 10.4157 8.80721 10.2819 8.7523C10.148 8.69739 10.0047 8.66942 9.86001 8.66999V8.66999Z"
          fill="white"
        ></path>
        <path
          fill-rule="evenodd"
          clip-rule="evenodd"
          d="M10.43 5.29999C10.4059 5.15335 10.3273 5.02122 10.21 4.92999C10.1138 4.85222 9.99373 4.80986 9.86999 4.81H9.78C9.70526 4.81972 9.63319 4.84416 9.56796 4.88193C9.50273 4.91969 9.44564 4.97003 9.39999 5.03L5.64999 10.03C5.60685 10.0913 5.57314 10.1587 5.54998 10.23C5.53998 10.303 5.53998 10.377 5.54998 10.45C5.56002 10.5252 5.5874 10.5971 5.62997 10.66C5.66891 10.7255 5.71981 10.7832 5.78 10.83C5.87953 10.9003 5.99812 10.9387 6.11999 10.94C6.21014 10.9405 6.29915 10.9199 6.37997 10.88C6.45938 10.8403 6.52801 10.782 6.57998 10.71L10.33 5.70999C10.4155 5.5916 10.4514 5.44447 10.43 5.29999V5.29999Z"
          fill="white"
        ></path>
        <path
          fill-rule="evenodd"
          clip-rule="evenodd"
          d="M6.89005 6.79999C7.09524 6.59223 7.2103 6.31199 7.2103 6.01999C7.2103 5.72799 7.09524 5.44775 6.89005 5.23999C6.68229 5.0348 6.40205 4.91974 6.11005 4.91974C5.81804 4.91974 5.5378 5.0348 5.33005 5.23999C5.12318 5.44686 5.00696 5.72743 5.00696 6.01999C5.00696 6.31255 5.12318 6.59312 5.33005 6.79999C5.53692 7.00686 5.81749 7.12308 6.11005 7.12308C6.4026 7.12308 6.68318 7.00686 6.89005 6.79999V6.79999Z"
          fill="white"
        ></path>
      </g>
    </svg>