 <svg
      width="20"
      height="20"
      viewBox="0 0 16 16"
      fill="none"
      xmlns="http://www.w3.org/2000/svg"
      class="nav-inactive-icon"
    >
      <g opacity="0.8">
        <path
          d="M13.5518 15H10.454C10.1732 15 9.90374 14.8889 9.70454 14.6909C9.50533 14.4929 9.39254 14.2242 9.39081 13.9433V9.7298H6.58179V13.9433C6.58005 14.2242 6.46727 14.4929 6.26806 14.6909C6.06886 14.8889 5.79941 15 5.51856 15H2.42076C2.097 15 1.78649 14.8714 1.55756 14.6425C1.32863 14.4135 1.20001 14.103 1.20001 13.7793V6.39572C1.20027 6.20565 1.2449 6.01827 1.33036 5.84849C1.41581 5.67872 1.53973 5.53124 1.69225 5.41781L7.32342 1.24366C7.53461 1.08549 7.79136 1 8.05521 1C8.31906 1 8.57582 1.08549 8.787 1.24366L14.3066 5.41125C14.4532 5.52941 14.5709 5.67956 14.6505 5.8502C14.7301 6.02084 14.7696 6.20745 14.766 6.39572V13.7793C14.7669 13.9393 14.7361 14.0978 14.6755 14.2459C14.6149 14.394 14.5256 14.5286 14.4127 14.6421C14.2999 14.7555 14.1658 14.8455 14.018 14.907C13.8703 14.9684 13.7118 15 13.5518 15ZM10.5197 13.8843H13.565C13.5917 13.8826 13.6167 13.8708 13.635 13.8513C13.6533 13.8318 13.6635 13.806 13.6634 13.7793V6.39572C13.664 6.38035 13.6607 6.36508 13.6538 6.35132C13.6469 6.33756 13.6367 6.32575 13.624 6.31696L8.09131 2.14937C8.07289 2.13696 8.05118 2.13032 8.02896 2.13032C8.00675 2.13032 7.98503 2.13696 7.96661 2.14937L2.342 6.32353C2.32842 6.33338 2.31724 6.34617 2.30928 6.36094C2.30133 6.37571 2.29681 6.39209 2.29606 6.40885V13.7793C2.29606 13.8071 2.30712 13.8338 2.32682 13.8535C2.34651 13.8732 2.37322 13.8843 2.40107 13.8843H5.44636V9.61822C5.44809 9.35244 5.55443 9.09802 5.74238 8.91008C5.93032 8.72213 6.18474 8.61578 6.45052 8.61406H9.50239C9.63512 8.6132 9.76672 8.63849 9.88968 8.68848C10.0126 8.73848 10.1245 8.81221 10.219 8.90545C10.3135 8.9987 10.3886 9.10964 10.4402 9.23193C10.4918 9.35423 10.5188 9.48549 10.5197 9.61822V13.8843Z"
          fill="white"
        ></path>
      </g>
    </svg>