 <svg
      width="20"
      height="20"
      viewBox="0 0 16 16"
      fill="none"
      xmlns="http://www.w3.org/2000/svg"
      class="nav-inactive-icon"
    >
      <g opacity="0.8">
        <path
          fill-rule="evenodd"
          clip-rule="evenodd"
          d="M11.4376 1.58989C11.2893 0.957005 10.7245 0.5 10.0642 0.5H5.93576L5.83102 0.50393L5.72216 0.516339L5.6151 0.537137C4.98221 0.685402 4.52521 1.2503 4.52521 1.91055V2.08258H3.35548L3.23545 2.08574C2.16237 2.14235 1.29126 2.95316 1.29126 3.97478V13.6078L1.29481 13.7204C1.35842 14.7257 2.26836 15.5 3.35548 15.5H12.6445L12.7645 15.4969C13.8376 15.4402 14.7087 14.6294 14.7087 13.6078V3.97478L14.7051 3.86216C14.6415 2.8569 13.7316 2.08258 12.6445 2.08258H11.4748V1.91055L11.4708 1.80581L11.4584 1.69695L11.4376 1.58989ZM11.4748 3.11469V3.2867C11.4748 3.94695 11.0177 4.51185 10.3849 4.66011L10.2778 4.68091L10.1689 4.69332L10.0642 4.69725H5.93576C5.27551 4.69725 4.71061 4.24024 4.56234 3.60736L4.54155 3.50029L4.52914 3.39144L4.52521 3.2867V3.11469H3.35548C2.80708 3.11469 2.37671 3.46857 2.32797 3.89421L2.32337 3.97478V13.6078C2.32337 14.0413 2.72149 14.4207 3.2541 14.4638L3.35548 14.4679H12.6445C13.1929 14.4679 13.6232 14.114 13.672 13.6884L13.6766 13.6078V3.97478C13.6766 3.54129 13.2785 3.1619 12.7459 3.11877L12.6445 3.11469H11.4748ZM6.14196 1.29128H9.85799C10.2156 1.29128 10.5272 1.52067 10.6402 1.85491L10.6643 1.94058L10.6788 2.0289L10.6837 2.117L10.6832 3.09366L10.676 3.19145L10.659 3.28068L10.6295 3.37519C10.5425 3.6029 10.3586 3.77954 10.127 3.86008L10.038 3.88569L9.94496 3.90122L9.85799 3.90596L6.12858 3.90553L6.03079 3.89833L5.94156 3.88132L5.84705 3.85175C5.61934 3.76474 5.4427 3.58083 5.36216 3.34925L5.33655 3.26026L5.32102 3.16724L5.31628 3.08025L5.31671 2.10359L5.32391 2.0058L5.34092 1.91657L5.37049 1.82206C5.4575 1.59435 5.64141 1.41771 5.87299 1.33717L5.96198 1.31156L6.055 1.29603L6.14196 1.29128Z"
          fill="white"
        ></path>
        <path
          d="M4.37032 8.47675C4.7505 8.47675 5.0587 8.16856 5.0587 7.78838C5.0587 7.4082 4.7505 7.1 4.37032 7.1C3.99014 7.1 3.68195 7.4082 3.68195 7.78838C3.68195 8.16856 3.99014 8.47675 4.37032 8.47675Z"
          fill="white"
        ></path>
        <path
          d="M6.43548 7.1588C6.08986 7.1588 5.80968 7.43898 5.80968 7.7846C5.80968 8.13021 6.08986 8.41039 6.43548 8.41039H11.6922C12.0378 8.41039 12.318 8.13021 12.318 7.7846C12.318 7.43898 12.0378 7.1588 11.6922 7.1588H6.43548Z"
          fill="white"
        ></path>
        <path
          d="M5.80971 11.3217C5.80971 10.9761 6.08988 10.696 6.4355 10.696H11.6922C12.0378 10.696 12.318 10.9761 12.318 11.3217C12.318 11.6674 12.0378 11.9475 11.6922 11.9475H6.4355C6.08988 11.9475 5.80971 11.6674 5.80971 11.3217Z"
          fill="white"
        ></path>
        <path
          d="M4.37035 12.0139C4.75053 12.0139 5.05873 11.7057 5.05873 11.3255C5.05873 10.9453 4.75053 10.6371 4.37035 10.6371C3.99017 10.6371 3.68197 10.9453 3.68197 11.3255C3.68197 11.7057 3.99017 12.0139 4.37035 12.0139Z"
          fill="white"
        ></path>
      </g>
    </svg>