 <svg
      xmlns="http://www.w3.org/2000/svg"
      width="20"
      height="20"
      fill="none"
      viewBox="0 0 24 24"
      class="nav-inactive-icon"
    >
      <path
        fill="#fff"
        fill-rule="evenodd"
        d="M13.888.606c.397.172.633.586.58 1.015l-.913 7.304H21.9c.378 0 .723.22.883.562.16.342.108.747-.134 1.038l-10.5 12.6c-.277.332-.74.442-1.137.27s-.633-.586-.58-1.015l.914-7.305H3c-.378 0-.722-.218-.883-.561-.16-.343-.108-.747.134-1.038l10.5-12.6c.277-.332.74-.442 1.137-.27zm-8.806 12.52h7.368c.28 0 .546.12.731.33.185.209.271.488.237.765l-.638 5.1 7.038-8.446H12.45c-.28 0-.546-.12-.73-.33-.186-.209-.272-.488-.237-.765l.637-5.1-7.038 8.445z"
        clip-rule="evenodd"
        opacity="0.8"
      ></path>
    </svg>